# Blender v2.90.1 OBJ File: ''
# www.blender.org
mtllib spike2.mtl
o Icosphere_Icosphere.001
v -2.524541 1.828932 1.430999
v -1.111131 2.261160 -0.394514
v -5.487657 2.895257 0.889191
v -0.189033 0.892849 -1.354681
v 1.081316 1.160166 -1.665628
v -1.990233 -1.190272 0.676806
v -0.413216 -0.177175 1.700183
v 0.599114 1.500912 -0.861020
v 0.013975 -0.172264 -2.868026
v -4.909871 2.056690 -0.348923
v -4.169374 2.758534 -0.065543
v -2.667595 0.564420 -0.607983
v -0.976544 -2.522411 0.114361
v -1.880807 -0.951766 0.328808
v -1.242795 -2.617130 -1.303633
v 0.367895 -2.005168 1.967095
v -0.418683 -3.004094 1.499151
v 0.088537 -3.136054 1.280229
v 1.937956 1.481247 -1.533167
v 1.849975 1.249228 -0.032993
v 2.248975 1.091192 -1.423774
v -1.194754 0.304339 -1.552245
v -1.827259 -0.985026 -0.709193
v -0.946420 -2.742070 -0.674107
v 2.244714 -0.535692 1.550074
v 0.550181 0.171411 -2.506122
v -1.049739 -0.563351 -1.884542
v 0.008579 -0.517443 -2.909119
v -0.282117 -1.079144 -2.449547
v -1.078067 -2.609142 -1.585867
v -1.072252 -1.493999 -1.746788
v -0.800220 -2.494326 -1.572604
v -0.567630 -2.749317 -0.305509
v -0.984877 -2.843285 -1.351102
v -0.387780 -2.337236 -0.478040
v 2.326954 0.588135 -0.341312
v 0.885763 -2.203284 1.336722
v 0.808964 -0.396074 -1.112190
v 0.264475 -0.316217 -3.014672
v 0.927375 0.159772 -2.146074
v 0.265946 -0.473853 -2.570222
v -0.367634 -1.429933 -1.962649
vt 0.818181 0.000000
vt 0.772726 0.078731
vt 0.863635 0.078731
vt 0.727272 0.157461
vt 0.681818 0.078731
vt 0.636363 0.157461
vt 0.090909 0.000000
vt 0.045454 0.078731
vt 0.136363 0.078731
vt 0.272727 0.000000
vt 0.227273 0.078731
vt 0.318182 0.078731
vt 0.454545 0.000000
vt 0.409090 0.078731
vt 0.500000 0.078731
vt 0.681818 0.236191
vt 0.909090 0.157461
vt 0.818181 0.157461
vt 0.863635 0.236191
vt 0.181818 0.157461
vt 0.090909 0.157461
vt 0.136363 0.236191
vt 0.363636 0.157461
vt 0.272727 0.157461
vt 0.318182 0.236191
vt 0.545454 0.157461
vt 0.454545 0.157461
vt 0.500000 0.236191
vt 0.772726 0.236191
vt 0.954545 0.236191
vt 0.227273 0.236191
vt 0.409090 0.236191
vt 0.590909 0.236191
vt 0.818181 0.314921
vt 0.727272 0.314921
vt 0.772726 0.393651
vt 1.000000 0.314921
vt 0.909091 0.314921
vt 0.954545 0.393651
vt 0.272727 0.314921
vt 0.181818 0.314921
vt 0.227273 0.393651
vt 0.454545 0.314921
vt 0.363636 0.314921
vt 0.409090 0.393651
vt 0.636363 0.314921
vt 0.545454 0.314921
vt 0.590909 0.393651
vt 0.500000 0.393651
vt 0.545454 0.472382
vt 0.318182 0.393651
vt 0.363636 0.472382
vt 0.136363 0.393651
vt 0.181818 0.472382
vt 0.090909 0.314921
vt 0.863635 0.393651
vt 0.909090 0.472382
vt 0.681818 0.393651
vt 0.727272 0.472382
vt 0.045454 0.236191
vt 0.000000 0.157461
vt 0.590909 0.078731
vt 0.636363 0.000000
vn 0.2450 0.8836 0.3989
vn -0.2970 0.4062 -0.8642
vn -0.2687 -0.2779 0.9223
vn -0.3847 -0.2872 0.8772
vn 0.5074 0.6150 0.6035
vn -0.3009 0.7604 -0.5755
vn 0.0857 0.2940 -0.9520
vn -0.8390 -0.5092 0.1916
vn 0.2088 -0.5448 0.8121
vn 0.7538 0.6413 0.1434
vn -0.3272 0.7515 -0.5728
vn -0.1121 0.0041 -0.9937
vn -0.6734 -0.7184 0.1744
vn 0.5558 -0.5275 0.6425
vn 0.4780 0.1379 -0.8675
vn -0.6720 -0.2285 -0.7044
vn 0.1059 -0.1426 -0.9841
vn 0.8280 -0.4816 -0.2871
vn 0.6357 -0.6115 -0.4712
vn 0.7454 -0.6275 -0.2250
vn 0.7327 -0.6373 -0.2389
vn 0.7481 -0.6164 -0.2457
vn 0.6236 -0.7161 -0.3136
vn 0.7473 -0.5715 -0.3391
vn 0.6913 -0.5709 -0.4430
vn 0.7210 -0.5107 -0.4683
vn 0.8578 -0.4437 -0.2595
vn 0.7976 -0.5617 -0.2199
vn 0.2901 -0.6176 -0.7311
vn 0.8975 -0.4171 -0.1429
vn -0.5486 -0.2860 -0.7856
vn -0.6320 -0.0985 -0.7687
vn 0.6533 -0.6640 -0.3637
vn 0.6383 -0.6577 -0.4001
vn 0.5158 -0.8069 -0.2879
vn 0.6587 0.3229 -0.6796
vn 0.6340 -0.3751 -0.6763
vn 0.6604 -0.6617 -0.3551
vn 0.7561 -0.5765 -0.3097
vn 0.6834 -0.6085 0.4034
vn 0.6994 -0.5718 -0.4289
vn -0.1696 -0.9732 0.1551
vn -0.6362 -0.7569 0.1493
vn -0.6456 -0.6533 -0.3953
vn -0.8237 -0.0768 -0.5617
vn -0.8196 -0.4190 -0.3909
vn -0.6566 -0.0949 -0.7483
vn -0.6906 0.1551 -0.7064
vn -0.7161 0.0935 -0.6917
vn -0.4531 0.1124 -0.8843
vn -0.7013 0.6258 0.3414
vn 0.8969 0.3875 0.2133
vn -0.3001 0.5949 0.7456
vn 0.3217 -0.8806 -0.3479
vn -0.2716 -0.9611 -0.0499
vn -0.8109 -0.5710 0.1281
vn -0.8556 -0.1232 -0.5028
vn -0.9451 -0.3245 -0.0384
vn -0.7031 -0.7110 -0.0135
vn -0.4942 0.2377 -0.8363
vn -0.5532 -0.1774 -0.8140
vn -0.0826 0.4412 -0.8936
vn 0.0072 0.7198 -0.6942
vn 0.1573 0.5892 -0.7925
vn -0.1465 0.6852 -0.7135
vn 0.0935 0.9831 0.1575
vn -0.1573 0.8534 0.4970
vn 0.4453 0.3128 0.8389
vn -0.4505 -0.0625 0.8906
vn -0.5161 -0.0598 0.8544
vn -0.7730 -0.6275 0.0931
vn -0.7767 -0.3784 -0.5036
vn -0.6435 -0.5218 -0.5600
vn -0.7133 -0.6881 0.1332
vn -0.2366 0.8357 -0.4957
vn 0.3605 0.9167 -0.1721
vn 0.4611 0.7145 0.5262
vn -0.3901 0.6676 -0.6342
vn 0.1696 0.9810 0.0937
vn 0.0060 0.5771 -0.8166
usemtl None
s 1
f 1/1/1 2/2/1 3/3/1
f 4/4/2 2/5/2 5/6/2
f 1/7/3 3/8/3 6/9/3
f 1/10/4 6/11/4 7/12/4
f 1/13/5 7/14/5 8/15/5
f 4/4/6 5/6/6 9/16/6
f 10/17/7 11/18/7 12/19/7
f 13/20/8 14/21/8 15/22/8
f 16/23/9 17/24/9 18/25/9
f 19/26/10 20/27/10 21/28/10
f 4/4/11 9/16/11 22/29/11
f 10/17/12 12/19/12 23/30/12
f 13/20/13 15/22/13 24/31/13
f 16/23/14 18/25/14 25/32/14
f 19/26/15 21/28/15 26/33/15
f 27/34/16 28/35/16 29/36/16
f 30/37/17 31/38/17 32/39/17
f 33/40/18 34/41/18 35/42/18
f 36/43/19 37/44/19 38/45/19
f 39/46/20 40/47/20 41/48/20
f 41/48/21 38/49/21 42/50/21
f 41/48/22 40/47/22 38/49/22
f 40/47/23 36/43/23 38/49/23
f 38/45/24 35/51/24 42/52/24
f 38/45/25 37/44/25 35/51/25
f 37/44/26 33/40/26 35/51/26
f 35/42/27 32/53/27 42/54/27
f 35/42/28 34/41/28 32/53/28
f 34/41/29 30/55/29 32/53/29
f 32/39/30 29/56/30 42/57/30
f 32/39/31 31/38/31 29/56/31
f 31/38/32 27/34/32 29/56/32
f 29/36/33 41/58/33 42/59/33
f 29/36/34 28/35/34 41/58/34
f 28/35/35 39/46/35 41/58/35
f 26/33/36 40/47/36 39/46/36
f 26/33/37 21/28/37 40/47/37
f 21/28/38 36/43/38 40/47/38
f 25/32/39 37/44/39 36/43/39
f 25/32/40 18/25/40 37/44/40
f 18/25/41 33/40/41 37/44/41
f 24/31/42 34/41/42 33/40/42
f 24/31/43 15/22/43 34/41/43
f 15/22/44 30/55/44 34/41/44
f 23/30/45 31/38/45 30/37/45
f 23/30/46 12/19/46 31/38/46
f 12/19/47 27/34/47 31/38/47
f 22/29/48 28/35/48 27/34/48
f 22/29/49 9/16/49 28/35/49
f 9/16/50 39/46/50 28/35/50
f 21/28/51 25/32/51 36/43/51
f 21/28/52 20/27/52 25/32/52
f 20/27/53 16/23/53 25/32/53
f 18/25/54 24/31/54 33/40/54
f 18/25/55 17/24/55 24/31/55
f 17/24/56 13/20/56 24/31/56
f 15/22/57 23/60/57 30/55/57
f 15/22/58 14/21/58 23/60/58
f 14/21/59 10/61/59 23/60/59
f 12/19/60 22/29/60 27/34/60
f 12/19/61 11/18/61 22/29/61
f 11/18/62 4/4/62 22/29/62
f 9/16/63 26/33/63 39/46/63
f 9/16/64 5/6/64 26/33/64
f 5/6/65 19/26/65 26/33/65
f 8/15/66 20/27/66 19/26/66
f 8/15/67 7/14/67 20/27/67
f 7/14/68 16/23/68 20/27/68
f 7/12/69 17/24/69 16/23/69
f 7/12/70 6/11/70 17/24/70
f 6/11/71 13/20/71 17/24/71
f 6/9/72 14/21/72 13/20/72
f 6/9/73 3/8/73 14/21/73
f 3/8/74 10/61/74 14/21/74
f 5/6/75 8/62/75 19/26/75
f 5/6/76 2/5/76 8/62/76
f 2/5/77 1/63/77 8/62/77
f 3/3/78 11/18/78 10/17/78
f 3/3/79 2/2/79 11/18/79
f 2/2/80 4/4/80 11/18/80
